<svg width="61" height="20" viewBox="0 0 61 20" fill="none" xmlns="http://www.w3.org/2000/svg">
<path d="M4.56002 16V4.64H0.0800171V1.99999H12.28V4.64H7.80002V16H4.56002Z" fill="#000914"/>
<path d="M13.8033 16V5.23999H16.9233V16H13.8033ZM15.3633 3.74C14.79 3.74 14.3233 3.57333 13.9633 3.24C13.6033 2.90666 13.4233 2.49333 13.4233 1.99999C13.4233 1.50666 13.6033 1.09333 13.9633 0.759995C14.3233 0.426661 14.79 0.259995 15.3633 0.259995C15.9366 0.259995 16.4033 0.419995 16.7633 0.739995C17.1233 1.04666 17.3033 1.44666 17.3033 1.94C17.3033 2.45999 17.1233 2.89333 16.7633 3.24C16.4166 3.57333 15.95 3.74 15.3633 3.74Z" fill="#000914"/>
<path d="M26.1789 16.16C25.2723 16.16 24.4789 15.96 23.7989 15.56C23.1189 15.16 22.5856 14.5533 22.1989 13.74C21.8256 12.9133 21.6389 11.8733 21.6389 10.62C21.6389 9.35333 21.8189 8.31333 22.1789 7.5C22.5389 6.68666 23.0589 6.08 23.7389 5.68C24.4189 5.28 25.2323 5.08 26.1789 5.08C27.1923 5.08 28.0989 5.31333 28.8989 5.77999C29.7123 6.23333 30.3523 6.87333 30.8189 7.7C31.2989 8.52666 31.5389 9.5 31.5389 10.62C31.5389 11.7533 31.2989 12.7333 30.8189 13.56C30.3523 14.3867 29.7123 15.0267 28.8989 15.48C28.0989 15.9333 27.1923 16.16 26.1789 16.16ZM19.8189 19.88V5.23999H22.7989V7.44L22.7389 10.64L22.9389 13.82V19.88H19.8189ZM25.6389 13.6C26.1589 13.6 26.6189 13.48 27.0189 13.24C27.4323 13 27.7589 12.66 27.9989 12.22C28.2523 11.7667 28.3789 11.2333 28.3789 10.62C28.3789 9.99333 28.2523 9.45999 27.9989 9.01999C27.7589 8.57999 27.4323 8.24 27.0189 8C26.6189 7.76 26.1589 7.64 25.6389 7.64C25.1189 7.64 24.6523 7.76 24.2389 8C23.8256 8.24 23.4989 8.57999 23.2589 9.01999C23.0189 9.45999 22.8989 9.99333 22.8989 10.62C22.8989 11.2333 23.0189 11.7667 23.2589 12.22C23.4989 12.66 23.8256 13 24.2389 13.24C24.6523 13.48 25.1189 13.6 25.6389 13.6Z" fill="#000914"/>
<path d="M39.9875 16.16C39.0808 16.16 38.2875 15.96 37.6075 15.56C36.9275 15.16 36.3942 14.5533 36.0075 13.74C35.6342 12.9133 35.4475 11.8733 35.4475 10.62C35.4475 9.35333 35.6275 8.31333 35.9875 7.5C36.3475 6.68666 36.8675 6.08 37.5475 5.68C38.2275 5.28 39.0408 5.08 39.9875 5.08C41.0008 5.08 41.9075 5.31333 42.7075 5.77999C43.5208 6.23333 44.1609 6.87333 44.6275 7.7C45.1075 8.52666 45.3475 9.5 45.3475 10.62C45.3475 11.7533 45.1075 12.7333 44.6275 13.56C44.1609 14.3867 43.5208 15.0267 42.7075 15.48C41.9075 15.9333 41.0008 16.16 39.9875 16.16ZM33.6275 19.88V5.23999H36.6075V7.44L36.5475 10.64L36.7475 13.82V19.88H33.6275ZM39.4475 13.6C39.9675 13.6 40.4275 13.48 40.8275 13.24C41.2408 13 41.5675 12.66 41.8075 12.22C42.0608 11.7667 42.1875 11.2333 42.1875 10.62C42.1875 9.99333 42.0608 9.45999 41.8075 9.01999C41.5675 8.57999 41.2408 8.24 40.8275 8C40.4275 7.76 39.9675 7.64 39.4475 7.64C38.9275 7.64 38.4608 7.76 38.0475 8C37.6342 8.24 37.3075 8.57999 37.0675 9.01999C36.8275 9.45999 36.7075 9.99333 36.7075 10.62C36.7075 11.2333 36.8275 11.7667 37.0675 12.22C37.3075 12.66 37.6342 13 38.0475 13.24C38.4608 13.48 38.9275 13.6 39.4475 13.6Z" fill="#000914"/>
<path d="M47.4361 16V5.23999H50.5561V16H47.4361ZM48.9961 3.74C48.4228 3.74 47.9561 3.57333 47.5961 3.24C47.2361 2.90666 47.0561 2.49333 47.0561 1.99999C47.0561 1.50666 47.2361 1.09333 47.5961 0.759995C47.9561 0.426661 48.4228 0.259995 48.9961 0.259995C49.5694 0.259995 50.0361 0.419995 50.3961 0.739995C50.7561 1.04666 50.9361 1.44666 50.9361 1.94C50.9361 2.45999 50.7561 2.89333 50.3961 3.24C50.0494 3.57333 49.5828 3.74 48.9961 3.74Z" fill="#000914"/>
<path d="M57.8517 16.16C56.5851 16.16 55.5984 15.84 54.8917 15.2C54.1851 14.5467 53.8317 13.58 53.8317 12.3V2.86H56.9517V12.26C56.9517 12.7133 57.0717 13.0667 57.3117 13.32C57.5517 13.56 57.8784 13.68 58.2917 13.68C58.7851 13.68 59.2051 13.5467 59.5517 13.28L60.3917 15.48C60.0717 15.7067 59.6851 15.88 59.2317 16C58.7917 16.1067 58.3317 16.16 57.8517 16.16ZM52.1717 7.87999V5.48H59.6317V7.87999H52.1717Z" fill="#000914"/>
</svg>
